<?xml version="1.0" encoding="UTF-8"?>
<svg xmlns="http://www.w3.org/2000/svg" viewBox="0 0 124 124">
  <defs>
    <style>
      .cls-1 {
        fill: #181716;
        stroke: #010408;
        stroke-width: 4px;
      }

      .cls-1, .cls-2 {
        stroke-miterlimit: 10;
      }

      .cls-2 {
        fill: #eb8965;
        stroke: #000;
      }
    </style>
  </defs>
  <g id="background">
    <rect class="cls-1" x="2" y="2" width="120" height="120" rx="16" ry="16"/>
  </g>
  <g id="Layer_1" data-name="Layer 1">
    <path class="cls-2" d="M112,96H12v-52h32v-16h36v12.34c2.33.83,4,3.05,4,5.66,0,3.31-2.69,6-6,6s-6-2.69-6-6c0-2.61,1.67-4.83,4-5.66v-8.34h-28v12h14v4H18.83l20,20h5.28c1-8.99,8.64-16,17.89-16,9.92,0,18,8.07,18,18s-8.08,18-18,18c-9.25,0-16.89-7.01-17.89-16h-6.94l-21.17-21.17v41.17h89.17l-13.17-13.17v-11.17c-2.33-.83-4-3.05-4-5.66,0-3.31,2.69-6,6-6s6,2.69,6,6c0,2.61-1.67,4.83-4,5.66v9.51l12,12v-41.17h-8.34c-.83,2.33-3.05,4-5.66,4-3.31,0-6-2.69-6-6s2.69-6,6-6c2.61,0,4.83,1.67,5.66,4h12.34v52ZM62,56c-7.72,0-14,6.28-14,14s6.28,14,14,14,14-6.28,14-14-6.28-14-14-14ZM94,60c-1.1,0-2,.9-2,2s.9,2,2,2,2-.9,2-2-.9-2-2-2ZM94,44c-1.1,0-2,.9-2,2s.9,2,2,2,2-.9,2-2-.9-2-2-2ZM78,44c-1.1,0-2,.9-2,2s.9,2,2,2,2-.9,2-2-.9-2-2-2Z"/>
  </g>
</svg>