<?xml version="1.0" encoding="UTF-8"?>
<svg id="Layer_1" data-name="Layer 1" xmlns="http://www.w3.org/2000/svg" viewBox="0 0 101 69">
  <defs>
    <style>
      .cls-1 {
        fill: #356585;
        stroke: #000;
        stroke-miterlimit: 10;
      }
    </style>
  </defs>
  <path class="cls-1" d="M100.5,68.5H.5V16.5h32V.5h36v12.34c2.33.83,4,3.05,4,5.66,0,3.31-2.69,6-6,6s-6-2.69-6-6c0-2.61,1.67-4.83,4-5.66V4.5h-28v12h14v4H7.33l20,20h5.28c1-8.99,8.64-16,17.89-16,9.92,0,18,8.07,18,18s-8.08,18-18,18c-9.25,0-16.89-7.01-17.89-16h-6.94L4.5,23.33v41.17h89.17l-13.17-13.17v-11.17c-2.33-.83-4-3.05-4-5.66,0-3.31,2.69-6,6-6s6,2.69,6,6c0,2.61-1.67,4.83-4,5.66v9.51l12,12V20.5h-8.34c-.83,2.33-3.05,4-5.66,4-3.31,0-6-2.69-6-6s2.69-6,6-6c2.61,0,4.83,1.67,5.66,4h12.34v52ZM50.5,28.5c-7.72,0-14,6.28-14,14s6.28,14,14,14,14-6.28,14-14-6.28-14-14-14ZM82.5,32.5c-1.1,0-2,.9-2,2s.9,2,2,2,2-.9,2-2-.9-2-2-2ZM82.5,16.5c-1.1,0-2,.9-2,2s.9,2,2,2,2-.9,2-2-.9-2-2-2ZM66.5,16.5c-1.1,0-2,.9-2,2s.9,2,2,2,2-.9,2-2-.9-2-2-2Z"/>
</svg>